# xmcd CD database file
#
# Track frame offsets:
#	150
#	16075
#	32742
#	53180
#	69798
#	95802
#	117790
#	134830
#	154773
#	173333
#	193155
#	226605
#
# Disc length: 3419 seconds
#
# Revision: 3
# Processed by: cddbd v1.5.1PL0 Copyright (c) Steve Scherf et al.
# Submitted via: CDex 1.51
#
DISCID=930d590c
DTITLE=ROBERT RANDOLPH and THE FAMiLY BAND - Unclassified
DYEAR=2003
DGENRE=Gospel
TTITLE0=Going In The Right Direction
TTITLE1=I Need More Love
TTITLE2=Nobody
TTITLE3=Soul Refreshing
TTITLE4=Squeeze
TTITLE5=Smile
TTITLE6=Good Times (3 Strokes)
TTITLE7=Why Should I Feel Lonely
TTITLE8=Calypso
TTITLE9=Problems
TTITLE10=Run For Your Life
TTITLE11=DATUM
EXTD=YEAR: 2003
EXTT0=
EXTT1=
EXTT2=
EXTT3=
EXTT4=
EXTT5=
EXTT6=
EXTT7=
EXTT8=
EXTT9=
EXTT10=
EXTT11=
PLAYORDER=
